<svg version="1.1" id="Layer_1" xmlns="http://www.w3.org/2000/svg" xmlns:xlink="http://www.w3.org/1999/xlink" x="0px" y="0px"
	 width="100%" viewBox="0 0 1132 236" enable-background="new 0 0 1132 236" xml:space="preserve">
<path fill="#FEFEFE" opacity="1.000000" stroke="none" 
	d="
M1070.000000,237.000000 
	C713.333313,237.000000 357.166656,237.000000 1.000000,237.000000 
	C1.000000,158.333328 1.000000,79.666664 1.000000,1.000000 
	C378.333344,1.000000 755.666687,1.000000 1133.000000,1.000000 
	C1133.000000,79.666664 1133.000000,158.333328 1133.000000,237.000000 
	C1112.166626,237.000000 1091.333374,237.000000 1070.000000,237.000000 
M871.905396,141.986572 
	C878.072021,141.979034 884.240784,141.872101 890.404358,142.005753 
	C893.500427,142.072906 895.055237,141.146591 894.949463,137.765717 
	C894.782715,132.437592 895.153870,127.085678 894.839539,121.770912 
	C894.433960,114.914223 891.952087,108.845879 885.143066,106.101852 
	C873.231140,101.301361 861.092712,101.163544 849.271362,106.395515 
	C843.134521,109.111595 840.018494,114.346169 839.912415,121.138206 
	C839.826538,126.636864 840.022766,132.141876 839.855103,137.636780 
	C839.674377,143.557068 842.196228,147.942047 847.044922,151.019287 
	C851.959900,154.138580 857.004639,157.053238 861.993042,160.633240 
	C861.991394,161.016312 861.989746,161.399384 861.058655,161.890915 
	C853.808899,161.890915 846.559204,161.890915 838.969604,161.890915 
	C838.969604,169.581253 838.838318,176.386948 839.002869,183.185501 
	C839.208069,191.660797 843.340515,197.369003 851.404541,199.963730 
	C861.828613,203.317856 872.407837,203.093170 882.779907,199.817963 
	C890.559937,197.361237 894.915588,190.928268 895.010925,182.838135 
	C895.069702,177.843658 894.859863,172.841309 895.061707,167.854279 
	C895.422668,158.932571 891.080811,153.155365 883.451111,149.201080 
	C879.203613,146.999741 875.165771,144.393982 870.994507,141.997696 
	C870.994507,141.997696 870.964783,142.034866 871.905396,141.986572 
M158.499969,204.879593 
	C200.731766,204.879593 242.963562,204.879593 285.350952,204.879593 
	C285.274841,203.741821 285.319550,203.245712 285.196747,202.795288 
	C284.847382,201.513992 284.470978,200.236893 284.032898,198.983429 
	C274.521637,171.770813 262.833313,145.532684 248.002548,120.800102 
	C236.648026,101.864685 223.737808,84.146736 205.193756,71.353889 
	C187.066025,58.848240 167.974777,56.789894 148.992233,68.247978 
	C137.702881,75.062370 126.768387,83.087822 117.375366,92.302696 
	C90.331039,118.834099 69.722504,150.325119 50.780781,182.929260 
	C46.739082,189.886200 42.901455,196.961700 38.467484,204.879593 
	C78.956192,204.879593 118.228065,204.879593 158.499969,204.879593 
M720.546692,187.662476 
	C720.979065,185.047791 721.777344,182.434479 721.787048,179.818222 
	C721.881348,154.342850 721.957275,128.866241 721.793091,103.391579 
	C721.718018,91.739288 715.691895,84.225967 704.140259,81.982666 
	C698.053284,80.800606 691.646912,80.785172 685.405945,80.968117 
	C670.004822,81.419586 661.268433,90.121727 661.126892,105.409012 
	C660.898682,130.050095 660.961670,154.695465 661.111938,179.337738 
	C661.182068,190.838760 666.077820,197.317215 676.618347,200.298080 
	C686.079346,202.973648 695.676453,202.996307 705.138733,200.347931 
	C711.739014,198.500580 717.412048,195.164032 720.546692,187.662476 
M432.045227,84.290970 
	C420.460663,79.267754 408.663391,79.546326 396.977936,83.530182 
	C388.496368,86.421753 384.146515,93.222435 384.033356,102.327347 
	C383.975403,106.992180 384.194183,111.666191 383.979950,116.321899 
	C383.710693,122.173073 385.623322,127.149940 389.524658,131.346100 
	C394.626495,136.833481 399.384552,142.800079 405.184082,147.444748 
	C416.062042,156.156555 418.796295,167.325867 417.329315,180.348846 
	C416.854645,184.562775 412.711639,186.965866 409.610931,184.291382 
	C408.274231,183.138412 407.689545,180.534042 407.641174,178.567444 
	C407.433563,170.130295 407.552582,161.685089 407.552582,153.337875 
	C399.325562,153.337875 391.776642,153.337875 384.265320,153.337875 
	C384.147705,154.277969 384.033447,154.768173 384.032867,155.258514 
	C384.022064,164.089722 383.968597,172.921417 384.041260,181.752045 
	C384.111084,190.238190 388.717743,196.898880 396.799011,199.560532 
	C407.702118,203.151581 418.790802,203.144882 429.667114,199.544479 
	C437.599762,196.918518 442.551575,191.217514 443.247253,182.728699 
	C443.803223,175.944565 443.841003,169.095963 443.708099,162.283783 
	C443.583344,155.890564 441.035339,150.306320 436.596497,145.677200 
	C430.718353,139.547119 425.022644,133.211273 418.791962,127.458336 
	C411.958923,121.149246 408.489929,113.767090 409.017761,104.459091 
	C409.206207,101.135300 409.267761,97.725441 413.710297,97.684769 
	C418.155945,97.644058 417.850037,101.115730 417.856049,104.154457 
	C417.868073,110.232460 417.859619,116.310501 417.859619,122.373558 
	C426.070984,122.373558 433.479126,122.373558 441.241272,122.373558 
	C441.241272,114.875587 441.250763,107.728958 441.238495,100.582367 
	C441.226776,93.760666 438.696075,88.286446 432.045227,84.290970 
M984.000000,194.397766 
	C984.000000,157.006516 984.000000,119.615265 984.000000,82.284729 
	C975.554871,82.284729 967.995605,82.284729 959.732910,82.284729 
	C959.732910,90.051407 959.732910,97.401878 959.732910,104.265587 
	C953.470154,103.787178 947.894775,102.945442 942.334351,103.034767 
	C934.158081,103.166122 928.016968,109.021324 927.969910,116.644112 
	C927.827087,139.794952 927.739136,162.950439 928.131836,186.095566 
	C928.189392,189.486298 930.154480,193.727661 932.658020,196.030045 
	C940.502075,203.243576 949.893005,203.673676 959.675232,200.182877 
	C961.163513,199.651810 963.240723,198.716309 964.277222,199.309738 
	C970.625427,202.944214 977.130981,200.232635 984.000000,200.940460 
	C984.000000,198.635696 984.000000,196.999573 984.000000,194.397766 
M600.182922,162.499954 
	C600.182922,181.916351 600.182922,201.332748 600.182922,220.634918 
	C608.655029,220.634918 616.379395,220.634918 624.368530,220.634918 
	C624.368530,213.321991 624.368530,206.390594 624.368530,200.035095 
	C629.955078,200.707275 635.327698,201.938110 640.684570,201.872955 
	C650.903259,201.748657 656.077637,196.020615 656.077820,185.884018 
	C656.078247,163.565491 656.013184,141.246628 656.124634,118.928650 
	C656.152771,113.291740 653.735779,109.367508 648.963928,106.769005 
	C639.482971,101.606133 629.976135,101.284195 621.133118,106.698288 
	C614.396423,101.466156 607.269226,105.073776 600.182983,103.892830 
	C600.182983,123.590157 600.182983,142.545044 600.182922,162.499954 
M782.868530,169.500000 
	C782.868530,147.766571 782.868530,126.033150 782.868530,104.314941 
	C774.464539,104.314941 766.897949,104.314941 758.878296,104.314941 
	C758.878296,106.506042 758.878357,108.305161 758.878357,110.104286 
	C758.878357,133.079788 758.886597,156.055313 758.860779,179.030777 
	C758.858887,180.678833 759.127747,182.667130 758.332581,183.884384 
	C757.430725,185.264847 755.511353,186.605942 753.957397,186.700592 
	C753.024658,186.757401 751.702209,184.516388 751.016541,183.086655 
	C750.561340,182.137558 750.918823,180.796890 750.918762,179.631500 
	C750.918030,156.323013 750.923340,133.014542 750.908203,109.706062 
	C750.907043,107.935699 750.762024,106.165443 750.662964,103.921837 
	C743.555847,103.921837 736.924927,104.064835 730.304626,103.861206 
	C727.018799,103.760139 726.012756,104.902420 726.026123,108.157181 
	C726.132141,133.962555 725.918640,159.770859 726.270264,185.571899 
	C726.321899,189.362381 727.888611,193.986420 730.393982,196.724365 
	C737.124756,204.080139 745.820190,203.040436 754.453064,200.348755 
	C755.674561,199.967896 756.958801,199.316620 758.160278,199.419342 
	C766.192871,200.106018 774.210815,200.963287 782.868225,201.828629 
	C782.868225,190.397125 782.868225,180.448563 782.868530,169.500000 
M988.906799,169.497406 
	C988.919128,173.825928 988.774048,178.161804 988.976074,182.481461 
	C989.418640,191.942352 994.249939,198.634277 1003.362793,200.415619 
	C1010.282837,201.768356 1017.621704,202.385742 1024.608276,201.682449 
	C1037.046997,200.430313 1043.479492,195.383057 1044.532593,186.282059 
	C1045.400024,178.787247 1044.709717,171.112183 1044.709717,163.428238 
	C1036.609375,163.428238 1028.928467,163.428238 1020.975586,163.428238 
	C1020.975586,166.052933 1020.988770,168.209091 1020.972717,170.365036 
	C1020.941772,174.525146 1021.211670,178.725754 1020.687439,182.823944 
	C1020.495239,184.327347 1018.525085,186.501938 1017.147156,186.680283 
	C1015.973816,186.832108 1013.380676,184.611664 1013.319824,183.348938 
	C1012.954224,175.764542 1013.138245,168.153656 1013.138245,159.956985 
	C1023.955933,159.956985 1034.181274,159.956985 1044.954590,159.956985 
	C1044.954590,157.575500 1044.961792,155.785141 1044.953491,153.994827 
	C1044.899414,142.343887 1045.317749,130.663666 1044.603638,119.053207 
	C1044.189453,112.320045 1039.730713,107.561951 1033.190063,105.165909 
	C1024.821045,102.099998 1016.083313,102.009926 1007.585876,103.470673 
	C993.468872,105.897446 988.919800,112.027359 988.909363,126.543976 
	C988.899353,140.528763 988.906799,154.513535 988.906799,169.497406 
M246.659119,104.862495 
	C265.709290,131.436066 277.740662,161.496231 289.092590,191.246735 
	C302.809570,158.273834 316.548401,125.248383 329.845123,93.285706 
	C312.053009,92.282448 293.103912,92.819824 274.767487,89.725983 
	C256.619659,86.663940 239.090042,79.937637 222.879440,75.275894 
	C230.003647,84.138489 238.106537,94.218582 246.659119,104.862495 
M594.116028,189.243210 
	C594.567261,180.674103 595.018494,172.104980 595.484131,163.261551 
	C587.136047,163.261551 579.563721,163.261551 571.499023,163.261551 
	C571.499023,169.850357 571.772949,176.336960 571.300659,182.768768 
	C571.186890,184.318207 568.600830,185.686096 567.151733,187.137466 
	C565.911743,185.845398 563.660400,184.599411 563.599060,183.253601 
	C563.252563,175.653564 563.431702,168.029556 563.431702,159.925018 
	C574.135559,159.925018 584.379639,159.925018 595.055298,159.925018 
	C595.055298,146.984863 595.108704,134.538101 595.037048,122.092064 
	C594.986877,113.385986 590.834717,107.646957 582.446411,105.028656 
	C572.850342,102.033363 563.114990,101.977196 553.441101,104.726524 
	C545.230835,107.059868 540.214417,112.342804 539.859192,121.104462 
	C539.508789,129.747314 539.461731,138.407516 539.489380,147.059448 
	C539.529175,159.540176 539.571777,172.026215 539.970886,184.498535 
	C540.224548,192.422318 544.983459,197.446457 552.217346,199.813690 
	C562.290466,203.110001 572.542297,202.906326 582.672913,199.875626 
	C587.843384,198.328812 591.778748,195.145721 594.116028,189.243210 
M493.204865,200.501251 
	C502.787170,202.804459 512.350891,202.785385 521.773987,199.834198 
	C528.091003,197.855789 532.967590,193.711746 533.605957,186.996918 
	C534.351685,179.152756 533.780212,171.183350 533.780212,163.352890 
	C525.871399,163.352890 518.324829,163.352890 510.555023,163.352890 
	C510.555023,165.670685 510.579407,167.653015 510.550140,169.634537 
	C510.481323,174.291763 510.674316,178.983124 510.121521,183.583817 
	C509.962830,184.904358 507.721863,186.694214 506.244934,186.899963 
	C505.143555,187.053391 502.678406,185.046036 502.633240,183.927765 
	C502.314056,176.024780 502.463593,168.102859 502.463593,159.710266 
	C513.346619,159.710266 523.592896,159.710266 534.026611,159.710266 
	C534.026611,146.732361 534.088989,134.251205 534.004333,121.771049 
	C533.949158,113.645615 529.774414,107.745216 522.068787,105.184952 
	C513.357910,102.290695 504.427917,102.189514 495.454163,103.911804 
	C484.857666,105.945526 479.088928,111.275490 478.802734,121.924011 
	C478.252869,142.384277 478.514435,162.872742 478.771149,183.345337 
	C478.882935,192.256958 484.008270,197.739624 493.204865,200.501251 
M821.107056,165.478516 
	C821.107239,151.146637 821.196228,136.813828 821.042480,122.483589 
	C821.005981,119.086082 821.899292,117.540848 825.508667,117.887932 
	C828.101440,118.137260 830.737488,117.936470 833.556152,117.936470 
	C833.556152,112.969467 833.556152,108.614563 833.556152,103.922646 
	C830.803467,103.922646 828.462646,103.721031 826.169922,103.967186 
	C822.154785,104.398285 820.807678,102.734711 821.045532,98.816185 
	C821.314209,94.389145 821.107483,89.933243 821.107483,84.924286 
	C813.994568,84.924286 807.534180,85.079758 801.086548,84.860756 
	C797.703369,84.745842 796.755493,86.063263 796.892517,89.237640 
	C797.097656,93.991249 796.945862,98.760269 796.945862,103.663353 
	C792.957458,103.880455 789.725952,104.056358 785.971130,104.260742 
	C786.175110,108.754204 785.239380,113.313011 786.946716,116.418907 
	C787.989624,118.316116 793.096069,117.979591 796.944641,118.761559 
	C796.944641,120.401085 796.944580,122.190575 796.944580,123.980057 
	C796.944885,140.145081 796.860962,156.310806 796.992249,172.474762 
	C797.036743,177.949371 797.368347,183.451523 798.044006,188.881927 
	C798.609863,193.428940 800.005798,198.566269 805.156006,199.285507 
	C814.886047,200.644348 824.767334,200.920364 834.644165,201.650711 
	C834.644165,194.569077 834.644165,188.988037 834.644165,183.473221 
	C821.104492,181.476089 821.104492,181.476089 821.107605,167.967529 
	C821.107727,167.467575 821.107422,166.967636 821.107056,165.478516 
M472.996704,99.501175 
	C472.996704,93.733925 472.996704,87.966667 472.996704,82.184296 
	C464.865082,82.184296 457.309448,82.184296 449.722046,82.184296 
	C449.722046,121.937225 449.722046,161.346893 449.722046,200.686890 
	C457.582336,200.686890 465.170258,200.686890 472.996704,200.686890 
	C472.996704,167.091782 472.996704,133.796173 472.996704,99.501175 
M899.039368,159.500000 
	C899.039368,173.231247 899.039368,186.962494 899.039368,201.044357 
	C906.536072,201.044357 913.181946,200.884781 919.814819,201.109589 
	C923.292542,201.227448 923.983337,199.720078 923.921875,196.651917 
	C923.765198,188.833084 923.870728,181.008987 923.870728,173.186996 
	C923.870728,151.718124 923.915100,130.248962 923.779724,108.780952 
	C923.769592,107.177856 922.535278,104.230835 921.761719,104.194130 
	C914.357849,103.842865 906.930664,103.984138 899.039429,103.984138 
	C899.039429,122.624916 899.039429,140.562454 899.039368,159.500000 
M331.003235,171.577805 
	C335.534973,182.608276 340.066711,193.638733 344.599518,204.671799 
	C356.351013,204.671799 368.215088,204.671799 380.757355,204.671799 
	C361.430420,177.871307 342.496338,151.615540 323.123779,124.751740 
	C321.110168,130.068512 319.316010,134.518814 317.785400,139.057983 
	C317.422791,140.133392 317.633820,141.643845 318.108398,142.722031 
	C322.250519,152.132706 326.512604,161.490585 331.003235,171.577805 
M313.403442,158.264603 
	C312.780487,157.336426 312.157532,156.408249 311.171448,154.939072 
	C304.758484,171.804733 298.540222,188.158386 292.243774,204.717590 
	C308.191284,204.717590 323.515900,204.717590 340.429413,204.717590 
	C331.214386,188.817551 322.521210,173.817978 313.403442,158.264603 
M918.261719,99.959946 
	C922.629639,100.614250 924.362671,98.791420 923.928711,94.378006 
	C923.636902,91.411461 923.773010,88.389191 923.898499,85.399452 
	C924.004944,82.861855 923.041931,81.779419 920.436951,81.822609 
	C914.448425,81.921875 908.453857,81.750565 902.469971,81.945251 
	C901.324768,81.982513 899.281982,83.144455 899.242981,83.872658 
	C898.962830,89.103439 899.093079,94.356209 899.093079,99.959625 
	C905.701050,99.959625 911.504761,99.959625 918.261719,99.959946 
z"/>
<path fill="#010101" opacity="1.000000" stroke="none" 
	d="
M157.999954,204.879593 
	C118.228065,204.879593 78.956192,204.879593 38.467484,204.879593 
	C42.901455,196.961700 46.739082,189.886200 50.780781,182.929260 
	C69.722504,150.325119 90.331039,118.834099 117.375366,92.302696 
	C126.768387,83.087822 137.702881,75.062370 148.992233,68.247978 
	C167.974777,56.789894 187.066025,58.848240 205.193756,71.353889 
	C223.737808,84.146736 236.648026,101.864685 248.002548,120.800102 
	C262.833313,145.532684 274.521637,171.770813 284.032898,198.983429 
	C284.470978,200.236893 284.847382,201.513992 285.196747,202.795288 
	C285.319550,203.245712 285.274841,203.741821 285.350952,204.879593 
	C242.963562,204.879593 200.731766,204.879593 157.999954,204.879593 
z"/>
<path fill="#A5BAC5" opacity="1.000000" stroke="none" 
	d="
M720.387146,188.025085 
	C717.412048,195.164032 711.739014,198.500580 705.138733,200.347931 
	C695.676453,202.996307 686.079346,202.973648 676.618347,200.298080 
	C666.077820,197.317215 661.182068,190.838760 661.111938,179.337738 
	C660.961670,154.695465 660.898682,130.050095 661.126892,105.409012 
	C661.268433,90.121727 670.004822,81.419586 685.405945,80.968117 
	C691.646912,80.785172 698.053284,80.800606 704.140259,81.982666 
	C715.691895,84.225967 721.718018,91.739288 721.793091,103.391579 
	C721.957275,128.866241 721.881348,154.342850 721.787048,179.818222 
	C721.777344,182.434479 720.979065,185.047791 720.387146,188.025085 
M688.022400,100.053932 
	C687.966614,126.851616 687.924805,153.649353 687.833984,180.446915 
	C687.824707,183.174286 688.520020,185.090881 691.678467,184.964386 
	C695.223389,184.822449 695.930908,182.519531 695.926819,179.492386 
	C695.892883,154.189423 695.935547,128.886337 695.886108,103.583427 
	C695.874939,97.860748 693.751648,96.707245 688.022400,100.053932 
z"/>
<path fill="#343334" opacity="1.000000" stroke="none" 
	d="
M432.357849,84.497505 
	C438.696075,88.286446 441.226776,93.760666 441.238495,100.582367 
	C441.250763,107.728958 441.241272,114.875587 441.241272,122.373558 
	C433.479126,122.373558 426.070984,122.373558 417.859619,122.373558 
	C417.859619,116.310501 417.868073,110.232460 417.856049,104.154457 
	C417.850037,101.115730 418.155945,97.644058 413.710297,97.684769 
	C409.267761,97.725441 409.206207,101.135300 409.017761,104.459091 
	C408.489929,113.767090 411.958923,121.149246 418.791962,127.458336 
	C425.022644,133.211273 430.718353,139.547119 436.596497,145.677200 
	C441.035339,150.306320 443.583344,155.890564 443.708099,162.283783 
	C443.841003,169.095963 443.803223,175.944565 443.247253,182.728699 
	C442.551575,191.217514 437.599762,196.918518 429.667114,199.544479 
	C418.790802,203.144882 407.702118,203.151581 396.799011,199.560532 
	C388.717743,196.898880 384.111084,190.238190 384.041260,181.752045 
	C383.968597,172.921417 384.022064,164.089722 384.032867,155.258514 
	C384.033447,154.768173 384.147705,154.277969 384.265320,153.337875 
	C391.776642,153.337875 399.325562,153.337875 407.552582,153.337875 
	C407.552582,161.685089 407.433563,170.130295 407.641174,178.567444 
	C407.689545,180.534042 408.274231,183.138412 409.610931,184.291382 
	C412.711639,186.965866 416.854645,184.562775 417.329315,180.348846 
	C418.796295,167.325867 416.062042,156.156555 405.184082,147.444748 
	C399.384552,142.800079 394.626495,136.833481 389.524658,131.346100 
	C385.623322,127.149940 383.710693,122.173073 383.979950,116.321899 
	C384.194183,111.666191 383.975403,106.992180 384.033356,102.327347 
	C384.146515,93.222435 388.496368,86.421753 396.977936,83.530182 
	C408.663391,79.546326 420.460663,79.267754 432.357849,84.497505 
z"/>
<path fill="#A5B9C5" opacity="1.000000" stroke="none" 
	d="
M984.000000,194.880615 
	C984.000000,196.999573 984.000000,198.635696 984.000000,200.940460 
	C977.130981,200.232635 970.625427,202.944214 964.277222,199.309738 
	C963.240723,198.716309 961.163513,199.651810 959.675232,200.182877 
	C949.893005,203.673676 940.502075,203.243576 932.658020,196.030045 
	C930.154480,193.727661 928.189392,189.486298 928.131836,186.095566 
	C927.739136,162.950439 927.827087,139.794952 927.969910,116.644112 
	C928.016968,109.021324 934.158081,103.166122 942.334351,103.034767 
	C947.894775,102.945442 953.470154,103.787178 959.732910,104.265587 
	C959.732910,97.401878 959.732910,90.051407 959.732910,82.284729 
	C967.995605,82.284729 975.554871,82.284729 984.000000,82.284729 
	C984.000000,119.615265 984.000000,157.006516 984.000000,194.880615 
M960.027771,173.466599 
	C960.027344,156.817093 959.999329,140.167496 960.049255,123.518127 
	C960.059448,120.099983 959.456604,116.977631 955.222717,118.299156 
	C953.751038,118.758499 952.204590,121.737091 952.168335,123.593880 
	C951.908264,136.908417 952.028442,150.230377 952.028564,163.549988 
	C952.028625,169.710297 951.759705,175.890228 952.204041,182.018402 
	C952.329346,183.746704 954.320312,186.423523 955.850830,186.737320 
	C958.902893,187.363022 960.029907,184.809189 960.025208,181.944427 
	C960.021179,179.447006 960.026611,176.949570 960.027771,173.466599 
z"/>
<path fill="#333232" opacity="1.000000" stroke="none" 
	d="
M600.182983,161.999939 
	C600.182983,142.545044 600.182983,123.590157 600.182983,103.892830 
	C607.269226,105.073776 614.396423,101.466156 621.133118,106.698288 
	C629.976135,101.284195 639.482971,101.606133 648.963928,106.769005 
	C653.735779,109.367508 656.152771,113.291740 656.124634,118.928650 
	C656.013184,141.246628 656.078247,163.565491 656.077820,185.884018 
	C656.077637,196.020615 650.903259,201.748657 640.684570,201.872955 
	C635.327698,201.938110 629.955078,200.707275 624.368530,200.035095 
	C624.368530,206.390594 624.368530,213.321991 624.368530,220.634918 
	C616.379395,220.634918 608.655029,220.634918 600.182922,220.634918 
	C600.182922,201.332748 600.182922,181.916351 600.182983,161.999939 
M624.151062,173.476624 
	C624.153625,176.640137 623.731995,179.887238 624.332153,182.932983 
	C624.647461,184.533005 626.991455,187.083298 627.994385,186.898499 
	C629.735229,186.577728 631.250854,184.562622 632.632568,183.049484 
	C633.053345,182.588669 632.736511,181.443024 632.736633,180.611023 
	C632.738953,161.796432 632.733093,142.981842 632.743774,124.167244 
	C632.745605,121.024055 632.688293,117.770042 628.444214,117.693474 
	C624.097229,117.615051 624.132812,120.875313 624.138245,124.031685 
	C624.166077,140.182205 624.151123,156.332825 624.151062,173.476624 
z"/>
<path fill="#A6BAC6" opacity="1.000000" stroke="none" 
	d="
M782.868408,170.000000 
	C782.868225,180.448563 782.868225,190.397125 782.868225,201.828629 
	C774.210815,200.963287 766.192871,200.106018 758.160278,199.419342 
	C756.958801,199.316620 755.674561,199.967896 754.453064,200.348755 
	C745.820190,203.040436 737.124756,204.080139 730.393982,196.724365 
	C727.888611,193.986420 726.321899,189.362381 726.270264,185.571899 
	C725.918640,159.770859 726.132141,133.962555 726.026123,108.157181 
	C726.012756,104.902420 727.018799,103.760139 730.304626,103.861206 
	C736.924927,104.064835 743.555847,103.921837 750.662964,103.921837 
	C750.762024,106.165443 750.907043,107.935699 750.908203,109.706062 
	C750.923340,133.014542 750.918030,156.323013 750.918762,179.631500 
	C750.918823,180.796890 750.561340,182.137558 751.016541,183.086655 
	C751.702209,184.516388 753.024658,186.757401 753.957397,186.700592 
	C755.511353,186.605942 757.430725,185.264847 758.332581,183.884384 
	C759.127747,182.667130 758.858887,180.678833 758.860779,179.030777 
	C758.886597,156.055313 758.878357,133.079788 758.878357,110.104286 
	C758.878357,108.305161 758.878296,106.506042 758.878296,104.314941 
	C766.897949,104.314941 774.464539,104.314941 782.868530,104.314941 
	C782.868530,126.033150 782.868530,147.766571 782.868408,170.000000 
z"/>
<path fill="#A5B9C5" opacity="1.000000" stroke="none" 
	d="
M988.906738,168.997864 
	C988.906799,154.513535 988.899353,140.528763 988.909363,126.543976 
	C988.919800,112.027359 993.468872,105.897446 1007.585876,103.470673 
	C1016.083313,102.009926 1024.821045,102.099998 1033.190063,105.165909 
	C1039.730713,107.561951 1044.189453,112.320045 1044.603638,119.053207 
	C1045.317749,130.663666 1044.899414,142.343887 1044.953491,153.994827 
	C1044.961792,155.785141 1044.954590,157.575500 1044.954590,159.956985 
	C1034.181274,159.956985 1023.955933,159.956985 1013.138245,159.956985 
	C1013.138245,168.153656 1012.954224,175.764542 1013.319824,183.348938 
	C1013.380676,184.611664 1015.973816,186.832108 1017.147156,186.680283 
	C1018.525085,186.501938 1020.495239,184.327347 1020.687439,182.823944 
	C1021.211670,178.725754 1020.941772,174.525146 1020.972717,170.365036 
	C1020.988770,168.209091 1020.975586,166.052933 1020.975586,163.428238 
	C1028.928467,163.428238 1036.609375,163.428238 1044.709717,163.428238 
	C1044.709717,171.112183 1045.400024,178.787247 1044.532593,186.282059 
	C1043.479492,195.383057 1037.046997,200.430313 1024.608276,201.682449 
	C1017.621704,202.385742 1010.282837,201.768356 1003.362793,200.415619 
	C994.249939,198.634277 989.418640,191.942352 988.976074,182.481461 
	C988.774048,178.161804 988.919128,173.825928 988.906738,168.997864 
M1013.050354,123.902122 
	C1013.050354,131.127136 1013.050354,138.352142 1013.050354,145.633087 
	C1016.051147,145.633087 1018.267395,145.633087 1020.986511,145.633087 
	C1020.986511,138.023315 1021.240295,130.756104 1020.815735,123.528755 
	C1020.703674,121.621071 1018.498352,119.836349 1017.254272,117.995140 
	C1015.853882,119.663910 1014.453491,121.332680 1013.050354,123.902122 
z"/>
<path fill="#030303" opacity="1.000000" stroke="none" 
	d="
M246.434280,104.580589 
	C238.106537,94.218582 230.003647,84.138489 222.879440,75.275894 
	C239.090042,79.937637 256.619659,86.663940 274.767487,89.725983 
	C293.103912,92.819824 312.053009,92.282448 329.845123,93.285706 
	C316.548401,125.248383 302.809570,158.273834 289.092590,191.246735 
	C277.740662,161.496231 265.709290,131.436066 246.434280,104.580589 
z"/>
<path fill="#343333" opacity="1.000000" stroke="none" 
	d="
M594.011902,189.630997 
	C591.778748,195.145721 587.843384,198.328812 582.672913,199.875626 
	C572.542297,202.906326 562.290466,203.110001 552.217346,199.813690 
	C544.983459,197.446457 540.224548,192.422318 539.970886,184.498535 
	C539.571777,172.026215 539.529175,159.540176 539.489380,147.059448 
	C539.461731,138.407516 539.508789,129.747314 539.859192,121.104462 
	C540.214417,112.342804 545.230835,107.059868 553.441101,104.726524 
	C563.114990,101.977196 572.850342,102.033363 582.446411,105.028656 
	C590.834717,107.646957 594.986877,113.385986 595.037048,122.092064 
	C595.108704,134.538101 595.055298,146.984863 595.055298,159.925018 
	C584.379639,159.925018 574.135559,159.925018 563.431702,159.925018 
	C563.431702,168.029556 563.252563,175.653564 563.599060,183.253601 
	C563.660400,184.599411 565.911743,185.845398 567.151733,187.137466 
	C568.600830,185.686096 571.186890,184.318207 571.300659,182.768768 
	C571.772949,176.336960 571.499023,169.850357 571.499023,163.261551 
	C579.563721,163.261551 587.136047,163.261551 595.484131,163.261551 
	C595.018494,172.104980 594.567261,180.674103 594.011902,189.630997 
M571.700562,123.162941 
	C571.370972,120.444389 570.971375,117.320625 567.391113,117.830406 
	C565.877930,118.045860 563.578186,120.362946 563.507690,121.815544 
	C563.124634,129.714355 563.325684,137.641495 563.325684,145.731781 
	C566.317078,145.731781 568.826233,145.731781 571.709961,145.731781 
	C571.709961,138.247620 571.709961,131.147324 571.700562,123.162941 
z"/>
<path fill="#343333" opacity="1.000000" stroke="none" 
	d="
M492.827087,200.361450 
	C484.008270,197.739624 478.882935,192.256958 478.771149,183.345337 
	C478.514435,162.872742 478.252869,142.384277 478.802734,121.924011 
	C479.088928,111.275490 484.857666,105.945526 495.454163,103.911804 
	C504.427917,102.189514 513.357910,102.290695 522.068787,105.184952 
	C529.774414,107.745216 533.949158,113.645615 534.004333,121.771049 
	C534.088989,134.251205 534.026611,146.732361 534.026611,159.710266 
	C523.592896,159.710266 513.346619,159.710266 502.463593,159.710266 
	C502.463593,168.102859 502.314056,176.024780 502.633240,183.927765 
	C502.678406,185.046036 505.143555,187.053391 506.244934,186.899963 
	C507.721863,186.694214 509.962830,184.904358 510.121521,183.583817 
	C510.674316,178.983124 510.481323,174.291763 510.550140,169.634537 
	C510.579407,167.653015 510.555023,165.670685 510.555023,163.352890 
	C518.324829,163.352890 525.871399,163.352890 533.780212,163.352890 
	C533.780212,171.183350 534.351685,179.152756 533.605957,186.996918 
	C532.967590,193.711746 528.091003,197.855789 521.773987,199.834198 
	C512.350891,202.785385 502.787170,202.804459 492.827087,200.361450 
M505.699463,117.690056 
	C504.569397,118.945755 502.509308,120.166801 502.461029,121.462799 
	C502.160065,129.540436 502.309265,137.634842 502.309265,145.849686 
	C505.300690,145.849686 507.720215,145.849686 510.499023,145.849686 
	C510.499023,137.657410 510.701416,129.716660 510.315399,121.804596 
	C510.244598,120.353508 507.783081,119.019058 505.699463,117.690056 
z"/>
<path fill="#A5B9C5" opacity="1.000000" stroke="none" 
	d="
M861.992554,160.057541 
	C857.004639,157.053238 851.959900,154.138580 847.044922,151.019287 
	C842.196228,147.942047 839.674377,143.557068 839.855103,137.636780 
	C840.022766,132.141876 839.826538,126.636864 839.912415,121.138206 
	C840.018494,114.346169 843.134521,109.111595 849.271362,106.395515 
	C861.092712,101.163544 873.231140,101.301361 885.143066,106.101852 
	C891.952087,108.845879 894.433960,114.914223 894.839539,121.770912 
	C895.153870,127.085678 894.782715,132.437592 894.949463,137.765717 
	C895.055237,141.146591 893.500427,142.072906 890.404358,142.005753 
	C884.240784,141.872101 878.072021,141.979034 871.467529,141.540100 
	C871.008484,134.810303 871.204529,128.513138 870.806274,122.253807 
	C870.712097,120.774483 868.808899,119.131012 867.339172,118.177765 
	C866.858398,117.865936 864.655701,119.228134 864.023987,120.290611 
	C860.244751,126.646919 864.288635,138.857178 871.033447,141.970474 
	C875.165771,144.393982 879.203613,146.999741 883.451111,149.201080 
	C891.080811,153.155365 895.422668,158.932571 895.061707,167.854279 
	C894.859863,172.841309 895.069702,177.843658 895.010925,182.838135 
	C894.915588,190.928268 890.559937,197.361237 882.779907,199.817963 
	C872.407837,203.093170 861.828613,203.317856 851.404541,199.963730 
	C843.340515,197.369003 839.208069,191.660797 839.002869,183.185501 
	C838.838318,176.386948 838.969604,169.581253 838.969604,161.890915 
	C846.559204,161.890915 853.808899,161.890915 861.839233,162.144073 
	C862.759277,164.360077 862.993469,166.321701 863.019165,168.286041 
	C863.082031,173.080124 862.827942,177.892029 863.186157,182.660324 
	C863.295410,184.115479 864.734497,185.840286 866.050537,186.678345 
	C866.702209,187.093323 869.005676,186.134247 869.625610,185.185242 
	C874.322388,177.995667 869.907166,163.781616 861.992554,160.057541 
z"/>
<path fill="#A5B9C4" opacity="1.000000" stroke="none" 
	d="
M821.107178,165.973099 
	C821.107422,166.967636 821.107727,167.467575 821.107605,167.967529 
	C821.104492,181.476089 821.104492,181.476089 834.644165,183.473221 
	C834.644165,188.988037 834.644165,194.569077 834.644165,201.650711 
	C824.767334,200.920364 814.886047,200.644348 805.156006,199.285507 
	C800.005798,198.566269 798.609863,193.428940 798.044006,188.881927 
	C797.368347,183.451523 797.036743,177.949371 796.992249,172.474762 
	C796.860962,156.310806 796.944885,140.145081 796.944580,123.980057 
	C796.944580,122.190575 796.944641,120.401085 796.944641,118.761559 
	C793.096069,117.979591 787.989624,118.316116 786.946716,116.418907 
	C785.239380,113.313011 786.175110,108.754204 785.971130,104.260742 
	C789.725952,104.056358 792.957458,103.880455 796.945862,103.663353 
	C796.945862,98.760269 797.097656,93.991249 796.892517,89.237640 
	C796.755493,86.063263 797.703369,84.745842 801.086548,84.860756 
	C807.534180,85.079758 813.994568,84.924286 821.107483,84.924286 
	C821.107483,89.933243 821.314209,94.389145 821.045532,98.816185 
	C820.807678,102.734711 822.154785,104.398285 826.169922,103.967186 
	C828.462646,103.721031 830.803467,103.922646 833.556152,103.922646 
	C833.556152,108.614563 833.556152,112.969467 833.556152,117.936470 
	C830.737488,117.936470 828.101440,118.137260 825.508667,117.887932 
	C821.899292,117.540848 821.005981,119.086082 821.042480,122.483589 
	C821.196228,136.813828 821.107239,151.146637 821.107178,165.973099 
z"/>
<path fill="#373535" opacity="1.000000" stroke="none" 
	d="
M472.996704,100.000877 
	C472.996704,133.796173 472.996704,167.091782 472.996704,200.686890 
	C465.170258,200.686890 457.582336,200.686890 449.722046,200.686890 
	C449.722046,161.346893 449.722046,121.937225 449.722046,82.184296 
	C457.309448,82.184296 464.865082,82.184296 472.996704,82.184296 
	C472.996704,87.966667 472.996704,93.733925 472.996704,100.000877 
z"/>
<path fill="#A6BAC6" opacity="1.000000" stroke="none" 
	d="
M899.039429,159.000000 
	C899.039429,140.562454 899.039429,122.624916 899.039429,103.984138 
	C906.930664,103.984138 914.357849,103.842865 921.761719,104.194130 
	C922.535278,104.230835 923.769592,107.177856 923.779724,108.780952 
	C923.915100,130.248962 923.870728,151.718124 923.870728,173.186996 
	C923.870728,181.008987 923.765198,188.833084 923.921875,196.651917 
	C923.983337,199.720078 923.292542,201.227448 919.814819,201.109589 
	C913.181946,200.884781 906.536072,201.044357 899.039368,201.044357 
	C899.039368,186.962494 899.039368,173.231247 899.039429,159.000000 
z"/>
<path fill="#030303" opacity="1.000000" stroke="none" 
	d="
M330.871155,171.220978 
	C326.512604,161.490585 322.250519,152.132706 318.108398,142.722031 
	C317.633820,141.643845 317.422791,140.133392 317.785400,139.057983 
	C319.316010,134.518814 321.110168,130.068512 323.123779,124.751740 
	C342.496338,151.615540 361.430420,177.871307 380.757355,204.671799 
	C368.215088,204.671799 356.351013,204.671799 344.599518,204.671799 
	C340.066711,193.638733 335.534973,182.608276 330.871155,171.220978 
z"/>
<path fill="#030303" opacity="1.000000" stroke="none" 
	d="
M313.615723,158.541504 
	C322.521210,173.817978 331.214386,188.817551 340.429413,204.717590 
	C323.515900,204.717590 308.191284,204.717590 292.243774,204.717590 
	C298.540222,188.158386 304.758484,171.804733 311.171448,154.939072 
	C312.157532,156.408249 312.780487,157.336426 313.615723,158.541504 
z"/>
<path fill="#A7BAC6" opacity="1.000000" stroke="none" 
	d="
M917.785095,99.959785 
	C911.504761,99.959625 905.701050,99.959625 899.093079,99.959625 
	C899.093079,94.356209 898.962830,89.103439 899.242981,83.872658 
	C899.281982,83.144455 901.324768,81.982513 902.469971,81.945251 
	C908.453857,81.750565 914.448425,81.921875 920.436951,81.822609 
	C923.041931,81.779419 924.004944,82.861855 923.898499,85.399452 
	C923.773010,88.389191 923.636902,91.411461 923.928711,94.378006 
	C924.362671,98.791420 922.629639,100.614250 917.785095,99.959785 
z"/>
<path fill="#F6FAF8" opacity="1.000000" stroke="none" 
	d="
M861.992798,160.345398 
	C869.907166,163.781616 874.322388,177.995667 869.625610,185.185242 
	C869.005676,186.134247 866.702209,187.093323 866.050537,186.678345 
	C864.734497,185.840286 863.295410,184.115479 863.186157,182.660324 
	C862.827942,177.892029 863.082031,173.080124 863.019165,168.286041 
	C862.993469,166.321701 862.759277,164.360077 862.303955,162.089844 
	C861.989746,161.399384 861.991394,161.016312 861.992798,160.345398 
z"/>
<path fill="#FEFCF9" opacity="1.000000" stroke="none" 
	d="
M688.203613,99.648178 
	C693.751648,96.707245 695.874939,97.860748 695.886108,103.583427 
	C695.935547,128.886337 695.892883,154.189423 695.926819,179.492386 
	C695.930908,182.519531 695.223389,184.822449 691.678467,184.964386 
	C688.520020,185.090881 687.824707,183.174286 687.833984,180.446915 
	C687.924805,153.649353 687.966614,126.851616 688.203613,99.648178 
z"/>
<path fill="#FBFEFB" opacity="1.000000" stroke="none" 
	d="
M960.027832,173.959381 
	C960.026611,176.949570 960.021179,179.447006 960.025208,181.944427 
	C960.029907,184.809189 958.902893,187.363022 955.850830,186.737320 
	C954.320312,186.423523 952.329346,183.746704 952.204041,182.018402 
	C951.759705,175.890228 952.028625,169.710297 952.028564,163.549988 
	C952.028442,150.230377 951.908264,136.908417 952.168335,123.593880 
	C952.204590,121.737091 953.751038,118.758499 955.222717,118.299156 
	C959.456604,116.977631 960.059448,120.099983 960.049255,123.518127 
	C959.999329,140.167496 960.027344,156.817093 960.027832,173.959381 
z"/>
<path fill="#EEF1EF" opacity="1.000000" stroke="none" 
	d="
M624.151062,172.980011 
	C624.151123,156.332825 624.166077,140.182205 624.138245,124.031685 
	C624.132812,120.875313 624.097229,117.615051 628.444214,117.693474 
	C632.688293,117.770042 632.745605,121.024055 632.743774,124.167244 
	C632.733093,142.981842 632.738953,161.796432 632.736633,180.611023 
	C632.736511,181.443024 633.053345,182.588669 632.632568,183.049484 
	C631.250854,184.562622 629.735229,186.577728 627.994385,186.898499 
	C626.991455,187.083298 624.647461,184.533005 624.332153,182.932983 
	C623.731995,179.887238 624.153625,176.640137 624.151062,172.980011 
z"/>
<path fill="#FAFCFA" opacity="1.000000" stroke="none" 
	d="
M1013.051758,123.451782 
	C1014.453491,121.332680 1015.853882,119.663910 1017.254272,117.995148 
	C1018.498352,119.836349 1020.703674,121.621071 1020.815735,123.528755 
	C1021.240295,130.756104 1020.986511,138.023315 1020.986511,145.633087 
	C1018.267395,145.633087 1016.051147,145.633087 1013.050354,145.633087 
	C1013.050354,138.352142 1013.050354,131.127136 1013.051758,123.451782 
z"/>
<path fill="#ECEDEC" opacity="1.000000" stroke="none" 
	d="
M571.705261,123.604996 
	C571.709961,131.147324 571.709961,138.247620 571.709961,145.731781 
	C568.826233,145.731781 566.317078,145.731781 563.325684,145.731781 
	C563.325684,137.641495 563.124634,129.714355 563.507690,121.815544 
	C563.578186,120.362946 565.877930,118.045860 567.391113,117.830406 
	C570.971375,117.320625 571.370972,120.444389 571.705261,123.604996 
z"/>
<path fill="#ECEDED" opacity="1.000000" stroke="none" 
	d="
M506.062256,117.660416 
	C507.783081,119.019058 510.244598,120.353508 510.315399,121.804596 
	C510.701416,129.716660 510.499023,137.657410 510.499023,145.849686 
	C507.720215,145.849686 505.300690,145.849686 502.309265,145.849686 
	C502.309265,137.634842 502.160065,129.540436 502.461029,121.462799 
	C502.509308,120.166801 504.569397,118.945755 506.062256,117.660416 
z"/>
<path fill="#F9FDFD" opacity="1.000000" stroke="none" 
	d="
M871.013977,141.984085 
	C864.288635,138.857178 860.244751,126.646919 864.023987,120.290611 
	C864.655701,119.228134 866.858398,117.865936 867.339172,118.177765 
	C868.808899,119.131012 870.712097,120.774483 870.806274,122.253807 
	C871.204529,128.513138 871.008484,134.810303 870.997192,141.564255 
	C870.964783,142.034866 870.994507,141.997696 871.013977,141.984085 
z"/>
</svg>